<svg xmlns="http://www.w3.org/2000/svg" xmlns:xlink="http://www.w3.org/1999/xlink" width="500" zoomAndPan="magnify" viewBox="0 0 375 374.999991" height="500" preserveAspectRatio="xMidYMid meet" version="1.0"><defs><g/><clipPath id="8246e05080"><path d="M 168.132812 69.714844 L 330.882812 69.714844 L 330.882812 291 L 168.132812 291 Z M 168.132812 69.714844 " clip-rule="nonzero"/></clipPath><clipPath id="0c313514f6"><path d="M 249.332031 250.839844 L 283.832031 250.839844 L 283.832031 285.339844 L 249.332031 285.339844 Z M 249.332031 250.839844 " clip-rule="nonzero"/></clipPath></defs><g clip-path="url(#8246e05080)"><path fill="#000000" d="M 204.855469 245.511719 C 205.597656 245.753906 204.722656 244.234375 204.835938 243.539062 C 209.261719 241.1875 208.777344 233.933594 214.015625 232.402344 C 214.183594 230.390625 215.4375 229.453125 215.980469 227.816406 C 218.578125 228.339844 219.761719 227.375 221.878906 226.503906 C 222.292969 226.335938 223.945312 226.222656 224.503906 225.847656 C 226.691406 224.382812 226.855469 222.480469 228.433594 220.609375 C 227.105469 218.183594 228.882812 216.710938 228.433594 213.402344 C 231.386719 213.726562 230.664062 210.386719 233.679688 210.78125 C 233.570312 209.140625 234.691406 208.730469 235.648438 208.160156 C 235.507812 206.519531 236.367188 205.25 236.957031 203.574219 C 237.285156 202.628906 237.972656 201.476562 238.269531 200.296875 C 238.609375 198.925781 239.050781 198.175781 239.582031 197.019531 C 240.027344 196.050781 240.089844 194.578125 240.890625 193.089844 C 241.085938 192.714844 242.0625 192.09375 242.203125 191.777344 C 242.359375 191.417969 242.105469 190.855469 242.203125 190.46875 C 242.445312 189.507812 243.839844 185.914062 242.203125 183.261719 C 237.980469 184.90625 235.628906 181.820312 232.367188 180.640625 C 231.765625 179.941406 232.386719 178.5 231.714844 177.363281 C 231.40625 176.839844 230.007812 176.566406 229.746094 176.054688 C 229.320312 175.222656 228.953125 172.410156 228.433594 171.46875 C 228.246094 171.121094 227.84375 171.539062 227.78125 170.8125 C 227.707031 170 228.113281 168.835938 228.433594 167.539062 C 229.117188 164.773438 229.320312 163.023438 231.714844 161.640625 C 231.726562 160.09375 230.585938 159.714844 231.058594 157.710938 C 232.304688 157.425781 232.703125 156.300781 234.335938 156.398438 C 234.503906 154.480469 232.855469 154.386719 233.023438 152.46875 C 235.648438 151.375 235.710938 147.730469 240.234375 148.535156 C 242.535156 148.359375 239.050781 145.632812 240.890625 145.914062 C 240.398438 143.457031 243.394531 144.488281 243.511719 142.640625 C 243.992188 140.851562 242.207031 141.324219 242.203125 140.019531 C 241.722656 138.230469 243.507812 138.703125 243.511719 137.398438 C 243.265625 136.363281 242.292969 135.804688 242.203125 134.777344 C 242.105469 133.730469 242.714844 133.632812 242.859375 132.8125 C 243.226562 130.722656 242.738281 128.878906 243.511719 126.261719 C 243.570312 126.0625 244.136719 126.226562 244.167969 125.605469 C 244.195312 125.101562 244.738281 124.902344 244.824219 124.296875 C 245.085938 122.464844 243.734375 120.980469 244.824219 119.707031 C 242.148438 115.828125 238.742188 112.683594 236.300781 108.570312 C 232.78125 107.71875 229.984375 106.152344 225.15625 106.605469 C 224.023438 106.605469 223.800781 105.832031 223.191406 105.292969 C 222.746094 104.898438 222.101562 104.605469 221.878906 103.984375 C 220.148438 103.820312 219.015625 104.199219 217.292969 103.984375 C 215.953125 103.8125 214.542969 102.84375 213.359375 102.671875 C 210.355469 102.246094 207.695312 103.007812 204.835938 102.019531 C 204.59375 101.929688 204.835938 101.394531 204.179688 101.363281 C 204.003906 101.355469 203.683594 101.429688 203.523438 101.363281 C 202.941406 101.132812 201.058594 100.621094 199.589844 100.050781 C 199.320312 99.945312 199.617188 99.429688 198.9375 99.398438 C 198.757812 99.390625 198.4375 99.460938 198.28125 99.398438 C 197.878906 99.234375 197.75 98.785156 197.625 98.742188 C 196.535156 98.347656 195.292969 98.328125 194.347656 98.085938 C 194.183594 98.046875 194.289062 97.464844 193.691406 97.429688 C 192.175781 97.351562 191.738281 97.308594 190.414062 96.777344 C 190.136719 96.664062 187.824219 96.160156 187.136719 95.464844 C 184.777344 97.039062 184.515625 100.707031 182.546875 102.671875 C 180.96875 102.402344 181.125 103.871094 179.269531 103.328125 C 178.117188 103.921875 178.070312 105.621094 177.300781 106.605469 C 175.722656 106.335938 175.878906 107.804688 174.023438 107.257812 C 171.984375 108.0625 171.390625 110.304688 168.125 109.878906 C 168.542969 109.320312 168.261719 107.683594 168.78125 107.257812 C 169.875 106.359375 169.09375 104.820312 170.089844 103.328125 C 170.570312 102.613281 170.96875 102.136719 171.402344 101.363281 C 171.953125 100.386719 172.320312 98.617188 172.714844 98.085938 C 173.132812 97.523438 174.511719 96.945312 175.335938 96.121094 C 176.117188 95.339844 176.71875 93.894531 177.300781 93.5 C 178.089844 92.96875 179 93.226562 179.925781 92.847656 C 180.207031 92.726562 179.886719 92.230469 180.582031 92.191406 C 182.351562 92.097656 183.832031 90.800781 185.824219 89.570312 C 189.96875 90.53125 195.257812 90.519531 200.246094 90.878906 C 201.296875 90.957031 201.367188 91.429688 202.214844 91.535156 C 205.929688 91.980469 209.667969 90.976562 212.703125 91.535156 C 214.289062 91.824219 215.988281 92.863281 217.292969 93.5 C 219.578125 93.925781 220.871094 92.144531 223.847656 92.847656 C 225.320312 93.191406 225.460938 93.375 228.433594 92.847656 C 230.246094 92.523438 231.4375 91.175781 233.679688 91.535156 C 236.230469 91.632812 236.550781 92.917969 239.582031 93.5 C 242.574219 92.039062 248.46875 88.277344 252.035156 91.535156 C 252.894531 90.867188 254.453125 90.894531 255.3125 90.222656 C 256.367188 90.078125 255.636719 88.5 255.96875 87.601562 C 256.066406 87.335938 257.246094 86.457031 257.28125 86.292969 C 257.515625 85.074219 256.597656 84.316406 256.625 83.019531 C 256.625 83.148438 257.261719 82.726562 257.28125 82.363281 C 257.363281 80.703125 257.160156 79.171875 257.933594 77.773438 C 258.125 77.425781 258.550781 77.859375 258.589844 77.121094 C 258.683594 75.410156 259.824219 75.953125 259.902344 74.5 C 259.972656 73.136719 261.441406 74.238281 262.523438 73.191406 C 262.957031 72.769531 262.667969 71.570312 263.179688 71.222656 C 263.789062 71.078125 264.542969 71.40625 265.148438 71.222656 C 265.820312 71.019531 266.734375 70.882812 267.769531 70.570312 C 268.050781 70.480469 268.523438 69.914062 268.429688 69.914062 C 269.507812 69.800781 269.53125 70.542969 270.390625 70.570312 C 271.09375 70.585938 271.65625 69.90625 271.703125 69.914062 C 272.238281 69.957031 272.796875 70.476562 273.667969 70.570312 C 275.132812 70.71875 275.6875 70.625 276.945312 71.222656 C 277.261719 71.375 276.882812 71.839844 277.601562 71.878906 C 278.414062 71.925781 278.730469 72.875 279.570312 73.84375 C 279.957031 74.289062 280.074219 75.15625 280.878906 75.15625 C 282.152344 75.15625 280.917969 77.160156 281.535156 77.773438 C 281.589844 77.828125 282.171875 77.710938 282.191406 77.773438 C 282.355469 78.351562 281.953125 79.195312 282.191406 79.742188 C 282.316406 80.03125 282.773438 79.71875 282.847656 80.398438 C 282.957031 81.449219 282.316406 81.898438 282.191406 83.019531 C 281.941406 85.222656 281.804688 87.621094 281.535156 90.222656 C 282 92.601562 286.3125 91.128906 288.746094 91.535156 C 290.039062 91.011719 290.222656 92.679688 290.714844 92.847656 C 291.5 93.105469 292.542969 92.601562 293.335938 92.847656 C 293.605469 92.929688 294.488281 94.128906 294.648438 94.15625 C 295.703125 94.34375 295.773438 93.53125 296.613281 93.5 C 294.679688 91.277344 291.355469 90.453125 290.058594 87.601562 C 288.839844 87.511719 287.867188 87.171875 287.433594 86.292969 C 286.824219 85.59375 285.015625 86.089844 285.46875 84.328125 C 287.160156 83.273438 290.917969 84.695312 292.023438 86.292969 C 292.503906 86.246094 292.417969 85.132812 292.023438 84.328125 C 291.828125 83.921875 290.871094 83.359375 290.714844 83.019531 C 290.089844 81.699219 289.742188 80.265625 289.402344 79.085938 C 288.871094 78.523438 287.605469 78.699219 287.433594 77.773438 C 287.636719 75.574219 289.625 75.160156 291.367188 74.5 C 290.875 76.957031 293.871094 75.925781 293.992188 77.773438 C 295.539062 77.761719 295.917969 78.902344 297.925781 78.429688 C 299.484375 80.371094 301.796875 81.550781 303.824219 83.019531 C 304.609375 85.269531 305.246094 87.316406 306.445312 88.914062 C 310.640625 94.5 319.722656 95.335938 326.113281 98.742188 C 326.636719 99.964844 327.207031 101.140625 327.421875 102.671875 C 327.921875 104.574219 330.53125 104.367188 330.046875 107.257812 C 330.898438 109.242188 328.742188 108.414062 328.078125 109.226562 C 328 109.316406 328.175781 109.820312 328.078125 109.878906 C 327.835938 110.023438 326.9375 109.667969 326.769531 109.878906 C 326.703125 109.960938 326.847656 110.496094 326.769531 110.535156 C 326.53125 110.644531 325.613281 110.34375 325.457031 110.535156 C 324.75 111.402344 324.113281 110.8125 322.835938 111.191406 C 321.207031 111.675781 319.753906 113.011719 316.28125 112.5 C 315.277344 112.355469 314.214844 111.300781 313 111.191406 C 311.875 111.085938 311.574219 111.796875 310.378906 111.847656 C 308.910156 111.898438 308.359375 110.910156 305.789062 111.191406 C 304.609375 111.320312 303.023438 111.757812 301.855469 112.5 C 300.894531 113.117188 298.257812 112.933594 296.613281 113.8125 C 295.375 113.882812 296.160156 115.980469 294.644531 115.777344 C 294.566406 118.816406 294.796875 119.917969 293.992188 122.328125 C 293.910156 122.558594 293.367188 122.335938 293.335938 122.984375 C 293.28125 123.925781 292.632812 127.3125 292.023438 128.226562 C 291.113281 129.589844 290.648438 131.519531 290.714844 134.121094 C 290.078125 134.140625 290.199219 134.921875 290.058594 135.433594 C 287.855469 136.066406 286.785156 137.84375 285.46875 139.363281 C 287.179688 140.996094 285.535156 143.089844 284.8125 145.261719 C 284.367188 146.589844 284.496094 148.175781 284.15625 149.191406 C 284.078125 149.425781 283.535156 149.199219 283.5 149.847656 C 283.476562 150.390625 282.570312 150.894531 282.847656 151.8125 C 280.8125 152.835938 279.40625 154.492188 277.601562 155.742188 C 275.871094 161.84375 281.339844 164.058594 280.222656 171.46875 C 281.292969 173.238281 282.789062 174.585938 284.8125 175.398438 C 285.476562 178.550781 288.203125 179.789062 288.089844 182.605469 C 288.097656 182.496094 287.457031 182.875 287.433594 183.261719 C 287.371094 184.566406 287.09375 185.214844 286.125 186.539062 C 284.9375 188.15625 282.320312 190.402344 280.878906 192.433594 C 273.152344 193.226562 271.765625 200.363281 264.492188 201.605469 C 263.316406 204.398438 262.136719 207.578125 260.558594 210.125 C 260.335938 210.484375 259.941406 210.027344 259.902344 210.78125 C 259.863281 211.578125 258.636719 212.359375 257.933594 213.402344 C 257.457031 214.113281 257.042969 214.585938 256.625 215.367188 C 254.480469 219.332031 249.929688 223.167969 245.480469 225.851562 C 246.089844 226.878906 244.863281 227.578125 244.824219 227.816406 C 243.976562 232.644531 245.453125 238.207031 246.789062 241.574219 C 246.128906 242.066406 245.5 242.378906 244.824219 242.882812 C 243.367188 243.972656 243.445312 244.304688 241.546875 242.882812 C 241.035156 242.5 240.320312 242.378906 240.234375 241.574219 C 238.964844 241.769531 238.105469 242.25 236.957031 241.574219 C 236.917969 241.546875 237.574219 240.675781 237.613281 240.335938 C 237.558594 240.421875 237.015625 239.714844 236.949219 239.609375 C 236.945312 239.597656 236.945312 239.597656 236.945312 239.597656 C 236.511719 239.183594 235.277344 239.144531 235.644531 239.609375 C 235.574219 239.515625 234.339844 238.972656 234.335938 238.953125 C 234.195312 238.152344 235.777344 237.617188 234.335938 236.332031 C 230.789062 236.71875 229.582031 239.445312 229.089844 242.882812 C 227.503906 242.921875 227.289062 244.523438 226.46875 245.503906 C 225.851562 246.253906 223.703125 246.808594 224.5 248.78125 C 224.0625 249.410156 221.847656 248.675781 221.222656 249.4375 C 221.199219 249.46875 218.738281 251.574219 218.601562 251.402344 C 217.082031 249.503906 219.492188 253.542969 217.289062 251.402344 C 216.339844 251.691406 217.355469 251.976562 217.289062 252.710938 C 215.121094 252.941406 214.445312 254.671875 213.355469 255.988281 C 212.296875 256.171875 212.230469 255.367188 211.390625 255.332031 C 212.125 256.171875 211.75 256.171875 211.390625 256.644531 C 211.1875 256.90625 210.339844 257.730469 210.078125 257.953125 C 209.5625 258.394531 208.710938 258.164062 208.113281 258.609375 C 208.113281 258.242188 207.582031 257.863281 207.457031 258.609375 C 205.523438 259.511719 204.800781 261.636719 202.867188 262.539062 C 202.613281 263.253906 202.082031 264.113281 202.867188 263.195312 C 204.757812 262.3125 205.484375 260.273438 207.3125 259.34375 C 205.9375 260.757812 204.121094 263.261719 202.867188 264.507812 C 201.804688 264.691406 201.742188 263.882812 200.902344 263.851562 C 201.664062 264.820312 201.664062 265.503906 200.902344 266.472656 C 199.664062 266.964844 200.449219 268.425781 198.933594 267.128906 C 199.707031 269.105469 200.535156 271.03125 199.589844 273.023438 C 197.953125 273.972656 197.015625 274.609375 195 273.679688 C 192.785156 275.835938 193.433594 280.851562 191.066406 282.851562 C 191.285156 285.90625 190.558594 288.019531 189.757812 290.058594 C 188.996094 289.953125 188.589844 290.203125 188.445312 290.714844 C 185.117188 291.613281 184.789062 286.109375 182.546875 288.09375 C 180.578125 287.660156 183.175781 286.691406 182.546875 285.472656 C 182.414062 282.96875 180.855469 285.460938 179.925781 284.160156 C 179.578125 283.675781 181.222656 282.945312 181.234375 282.851562 C 181.347656 281.949219 180.316406 281.320312 178.613281 281.539062 C 179.316406 281.371094 178.828125 280.015625 179.269531 279.574219 C 180.054688 278.789062 178.921875 279.058594 179.269531 277.609375 C 179.300781 277.464844 179.890625 277.539062 179.925781 276.953125 C 179.929688 276.777344 179.859375 276.457031 179.925781 276.300781 C 180.035156 276.023438 180.539062 273.710938 181.234375 273.023438 C 181.355469 271.59375 180.699219 270.941406 179.269531 271.058594 C 179.5 270.199219 180.421875 270.03125 180.578125 269.09375 C 180.292969 268.285156 179.742188 267.75 178.613281 267.78125 C 178.828125 265.460938 180.414062 266.171875 179.269531 263.851562 C 181.804688 262.023438 184.761719 260.601562 187.789062 259.265625 C 189.285156 259.082031 190.253906 259.421875 190.414062 260.574219 C 191.398438 260.5625 190.476562 259.78125 190.414062 259.917969 C 190.847656 258.96875 192.597656 258.988281 193.035156 257.300781 C 194.554688 257.089844 195.550781 257.402344 196.3125 257.953125 C 195.066406 256.695312 197.210938 256.132812 198.496094 255.089844 C 198.425781 255.167969 198.351562 255.246094 198.28125 255.332031 C 197.894531 255.773438 196.796875 256.710938 197.625 257.300781 C 197.714844 256.125 198.789062 256.257812 199.589844 255.332031 C 201.597656 253.027344 200.324219 253.402344 198.988281 254.617188 C 199.382812 254.171875 200.214844 253.300781 200.246094 252.710938 C 200.292969 251.875 201.339844 251.886719 201.558594 251.402344 C 202.179688 250.019531 201.550781 250.378906 202.867188 250.746094 C 201.109375 246.894531 204.625 251.265625 202.867188 247.472656 C 203.214844 247.347656 203.753906 248.441406 204.179688 248.125 C 204.230469 248.085938 203.136719 246.652344 203.523438 246.160156 C 203.609375 246.050781 204.695312 247.089844 204.835938 246.816406 C 204.941406 246.605469 204.007812 245.558594 204.179688 244.851562 C 204.304688 244.324219 205.027344 245.511719 204.855469 245.511719 Z M 215.324219 253.367188 C 215.363281 252.96875 215.421875 252.59375 215.980469 252.710938 C 215.390625 250.9375 214.511719 254.214844 213.359375 254.023438 C 211.972656 256.726562 214.222656 253.773438 215.324219 253.367188 Z M 196.988281 234.375 C 197.828125 233.765625 197.238281 234.027344 196.988281 234.375 C 196.300781 234.871094 196.167969 234.996094 195.679688 235.683594 C 194.839844 236.292969 195.429688 236.03125 195.679688 235.683594 C 196.367188 235.1875 196.496094 235.0625 196.988281 234.375 " fill-opacity="1" fill-rule="nonzero"/></g><path fill="#000000" d="M 215.980469 252.710938 C 215.421875 252.59375 215.363281 252.96875 215.324219 253.367188 C 214.222656 253.773438 211.972656 256.730469 213.359375 254.023438 C 214.511719 254.214844 215.390625 250.9375 215.980469 252.710938 " fill-opacity="1" fill-rule="nonzero"/><path fill="#000000" d="M 208.113281 258.609375 C 207.59375 258.5 207.511719 258.820312 207.464844 259.183594 C 207.414062 259.238281 207.359375 259.289062 207.3125 259.34375 C 205.484375 260.273438 204.757812 262.3125 202.867188 263.195312 C 202.082031 264.113281 202.613281 263.253906 202.867188 262.539062 C 204.804688 261.636719 205.523438 259.511719 207.457031 258.609375 C 207.582031 257.863281 208.113281 258.242188 208.113281 258.609375 " fill-opacity="1" fill-rule="nonzero"/><path fill="#000000" d="M 207.464844 259.1875 C 207.511719 258.820312 207.59375 258.5 208.113281 258.609375 C 207.917969 258.761719 207.695312 258.957031 207.464844 259.1875 " fill-opacity="1" fill-rule="nonzero"/><path fill="#000000" d="M 207.457031 242.230469 C 207.707031 241.882812 208.296875 241.621094 207.457031 242.230469 " fill-opacity="1" fill-rule="nonzero"/><path fill="#000000" d="M 207.464844 259.1875 C 207.464844 259.210938 207.457031 259.238281 207.457031 259.265625 C 207.414062 259.285156 207.359375 259.3125 207.3125 259.34375 C 207.359375 259.292969 207.414062 259.238281 207.464844 259.1875 " fill-opacity="1" fill-rule="nonzero"/><path fill="#000000" d="M 207.457031 242.230469 C 206.964844 242.917969 206.835938 243.042969 206.148438 243.539062 C 206.636719 242.851562 206.769531 242.726562 207.457031 242.230469 " fill-opacity="1" fill-rule="nonzero"/><path fill="#000000" d="M 206.148438 243.539062 C 205.898438 243.886719 205.308594 244.148438 206.148438 243.539062 " fill-opacity="1" fill-rule="nonzero"/><path fill="#000000" d="M 198.988281 254.621094 C 200.324219 253.402344 201.597656 253.027344 199.589844 255.335938 C 198.792969 256.257812 197.714844 256.125 197.625 257.300781 C 196.796875 256.710938 197.894531 255.773438 198.28125 255.335938 C 198.351562 255.25 198.425781 255.171875 198.496094 255.089844 C 198.660156 254.96875 198.8125 254.832031 198.933594 254.679688 C 198.949219 254.660156 198.96875 254.640625 198.988281 254.621094 " fill-opacity="1" fill-rule="nonzero"/><path fill="#000000" d="M 198.988281 254.621094 C 198.96875 254.640625 198.949219 254.660156 198.933594 254.679688 C 198.8125 254.832031 198.660156 254.96875 198.496094 255.089844 C 198.660156 254.921875 198.824219 254.765625 198.988281 254.621094 " fill-opacity="1" fill-rule="nonzero"/><path fill="#000000" d="M 281.726562 269.394531 C 281.726562 278.019531 274.730469 285.011719 266.101562 285.011719 C 257.472656 285.011719 250.476562 278.019531 250.476562 269.394531 C 250.476562 260.765625 257.472656 253.773438 266.101562 253.773438 C 274.730469 253.773438 281.726562 260.765625 281.726562 269.394531 " fill-opacity="1" fill-rule="nonzero"/><g clip-path="url(#0c313514f6)"><path fill="#ffffff" d="M 249.371094 267.917969 C 249.398438 258.53125 257.15625 250.84375 266.558594 250.882812 C 275.96875 250.921875 283.722656 258.679688 283.574219 268.175781 C 283.429688 277.574219 276.050781 285.050781 266.515625 285.070312 C 256.769531 285.089844 249.429688 277.324219 249.371094 267.917969 Z M 274.277344 273.59375 C 274.21875 271.355469 273.34375 269.246094 272.167969 267.234375 C 272.015625 266.976562 271.800781 266.835938 271.5 266.785156 C 269.449219 266.449219 267.402344 266.113281 265.359375 265.75 C 264.859375 265.660156 264.503906 265.804688 264.152344 266.144531 C 262.675781 267.566406 261.246094 269.03125 259.964844 270.640625 C 259.605469 271.089844 259.539062 271.492188 259.746094 272.027344 C 260.378906 273.679688 260.980469 275.339844 261.574219 277.007812 C 261.714844 277.40625 261.929688 277.675781 262.320312 277.847656 C 264.40625 278.761719 266.613281 279.128906 268.855469 279.355469 C 269.144531 279.386719 269.410156 279.332031 269.632812 279.121094 C 271.136719 277.6875 272.640625 276.253906 273.96875 274.652344 C 274.195312 274.382812 274.332031 274.085938 274.277344 273.59375 Z M 258.296875 257.351562 C 257.394531 257.203125 256.46875 257.769531 255.671875 258.648438 C 254.613281 259.8125 253.6875 261.082031 252.757812 262.351562 C 252.605469 262.5625 252.476562 262.777344 252.5 263.042969 C 252.667969 265.054688 252.722656 267.082031 253.402344 269.015625 C 253.527344 269.375 253.691406 269.660156 254.117188 269.757812 C 255.617188 270.117188 257.109375 270.503906 258.605469 270.882812 C 258.996094 270.984375 259.308594 270.921875 259.574219 270.582031 C 260.921875 268.886719 262.351562 267.269531 263.992188 265.847656 C 264.328125 265.554688 264.425781 265.226562 264.308594 264.796875 C 263.824219 263.027344 263.621094 261.214844 263.511719 259.394531 C 263.476562 258.746094 263.191406 258.371094 262.585938 258.152344 C 261.308594 257.691406 260 257.421875 258.296875 257.351562 Z M 276.757812 260.933594 C 275.828125 260.863281 275.253906 261.347656 274.832031 262.398438 C 274.296875 263.722656 273.5625 264.964844 272.710938 266.121094 C 272.398438 266.542969 272.371094 266.882812 272.632812 267.339844 C 273.699219 269.207031 274.492188 271.179688 274.636719 273.355469 C 274.675781 273.957031 274.960938 274.160156 275.542969 274.1875 C 276.691406 274.238281 277.835938 274.34375 278.980469 274.453125 C 279.417969 274.496094 279.730469 274.34375 280.011719 274.023438 C 281.359375 272.496094 282.210938 270.71875 282.683594 268.75 C 282.734375 268.535156 282.746094 268.296875 282.710938 268.082031 C 282.46875 266.554688 282.09375 265.066406 281.496094 263.628906 C 280.761719 261.871094 279.394531 261.027344 277.597656 260.933594 C 277.398438 260.921875 277.171875 260.933594 276.757812 260.933594 Z M 266.59375 251.277344 C 263.605469 251.296875 261.023438 251.9375 258.601562 253.21875 C 258.378906 253.335938 257.984375 253.492188 257.992188 253.617188 C 258.035156 254.636719 257.390625 255.5 257.390625 256.503906 C 257.390625 256.960938 257.550781 257.089844 257.988281 257.0625 C 259.695312 256.953125 261.332031 257.261719 262.910156 257.914062 C 263.289062 258.074219 263.621094 258.167969 264.011719 257.90625 C 265.253906 257.066406 266.652344 256.566406 268.058594 256.082031 C 270.300781 255.308594 270.300781 255.300781 270.09375 252.933594 C 270.089844 252.902344 270.089844 252.875 270.085938 252.847656 C 270.066406 252.3125 269.796875 251.96875 269.308594 251.757812 C 268.359375 251.351562 267.363281 251.265625 266.59375 251.277344 Z M 266.046875 284.753906 C 267.78125 284.507812 269.53125 284.160156 271.15625 283.339844 C 271.550781 283.144531 271.644531 282.917969 271.300781 282.574219 C 270.664062 281.933594 270.191406 281.167969 269.71875 280.40625 C 269.460938 279.996094 269.144531 279.789062 268.644531 279.726562 C 266.390625 279.441406 264.152344 279.066406 262.058594 278.117188 C 261.78125 277.992188 261.523438 278.015625 261.269531 278.207031 C 260.285156 278.949219 259.25 279.617188 258.125 280.140625 C 257.8125 280.285156 257.679688 280.492188 257.917969 280.792969 C 258.910156 282.050781 259.933594 283.308594 261.460938 283.929688 C 262.902344 284.511719 264.464844 284.570312 266.046875 284.753906 Z M 280.671875 261.730469 C 280.789062 260.382812 280.648438 259.144531 279.988281 258.167969 C 278.433594 255.882812 276.328125 254.167969 273.828125 252.964844 C 272.964844 252.546875 272.066406 252.234375 271.085938 252.273438 C 270.816406 252.285156 270.464844 252.242188 270.480469 252.667969 C 270.507812 253.535156 270.542969 254.402344 270.460938 255.269531 C 270.441406 255.457031 270.601562 255.5625 270.742188 255.660156 C 272.417969 256.835938 273.691406 258.398438 274.882812 260.03125 C 275.21875 260.492188 275.613281 260.660156 276.167969 260.648438 C 277.714844 260.621094 279.25 260.710938 280.671875 261.730469 Z M 249.769531 268.050781 C 249.753906 269.773438 250.03125 271.453125 250.550781 273.09375 C 250.691406 273.542969 250.9375 273.890625 251.335938 274.144531 C 252.003906 274.5625 252.1875 274.507812 252.339844 273.738281 C 252.574219 272.558594 252.785156 271.371094 253.207031 270.234375 C 253.3125 269.953125 253.269531 269.699219 253.167969 269.421875 C 252.726562 268.207031 252.464844 266.949219 252.363281 265.65625 C 252.300781 264.847656 252.191406 264.042969 252.101562 263.234375 C 252.027344 262.59375 251.46875 262.445312 251.007812 262.351562 C 250.566406 262.265625 250.574219 262.789062 250.484375 263.078125 C 249.988281 264.695312 249.761719 266.355469 249.769531 268.050781 Z M 259.425781 283.117188 C 257.839844 281.285156 256.335938 279.386719 254.542969 277.746094 C 253.796875 277.0625 253.152344 276.277344 252.589844 275.4375 C 252.265625 274.953125 251.828125 274.746094 251.128906 274.628906 C 252.894531 278.566406 255.652344 281.335938 259.425781 283.117188 Z M 278.542969 279.453125 C 281.332031 276.667969 283.40625 271.8125 283.035156 268.96875 C 282.421875 271.0625 281.535156 272.949219 280.050781 274.507812 C 279.914062 274.652344 279.8125 274.816406 279.800781 275.023438 C 279.695312 276.585938 279.171875 278.03125 278.542969 279.453125 Z M 276.953125 280.929688 C 274.847656 282.21875 272.414062 282.871094 270.328125 284.214844 C 272.800781 283.664062 275.019531 282.597656 276.953125 280.929688 Z M 276.953125 280.929688 " fill-opacity="1" fill-rule="evenodd"/></g><g fill="#000000" fill-opacity="1"><g transform="translate(125.999996, 178.288143)"><g><path d="M 4.515625 -21.21875 L 18.578125 -21.21875 L 18.046875 -18.6875 L 11.203125 -18.6875 L 9.890625 -12.5625 L 15.609375 -12.5625 L 15.078125 -10 L 9.359375 -10 L 7.21875 0 L 0 0 Z M 4.515625 -21.21875 "/></g></g></g><g fill="#000000" fill-opacity="1"><g transform="translate(142.410159, 178.288143)"><g><path d="M 18.515625 0 L 10.6875 0 L 10.234375 -5.3125 L 4.046875 -5.3125 L 1.671875 0 L -1.578125 0 L 8.28125 -21.21875 L 16.203125 -21.21875 Z M 5.140625 -7.75 L 10 -7.75 L 9.21875 -16.84375 Z M 5.140625 -7.75 "/></g></g></g><g fill="#000000" fill-opacity="1"><g transform="translate(162.530164, 178.288143)"><g><path d="M 17.8125 0 L 10 0 L 6.28125 -15.34375 L 3.015625 0 L 0 0 L 4.515625 -21.21875 L 12.5 -21.21875 L 16.015625 -5.6875 L 19.3125 -21.21875 L 22.390625 -21.21875 Z M 17.8125 0 "/></g></g></g><g fill="#000000" fill-opacity="1"><g transform="translate(184.05389, 178.288143)"><g><path d="M 20.359375 -18.6875 L 14.96875 -18.6875 L 11 0 L 3.78125 0 L 7.75 -18.6875 L 2.4375 -18.6875 L 3.046875 -21.21875 L 20.921875 -21.21875 Z M 20.359375 -18.6875 "/></g></g></g><g fill="#000000" fill-opacity="1"><g transform="translate(202.603057, 178.288143)"><g><path d="M 18.515625 0 L 10.6875 0 L 10.234375 -5.3125 L 4.046875 -5.3125 L 1.671875 0 L -1.578125 0 L 8.28125 -21.21875 L 16.203125 -21.21875 Z M 5.140625 -7.75 L 10 -7.75 L 9.21875 -16.84375 Z M 5.140625 -7.75 "/></g></g></g><g fill="#000000" fill-opacity="1"><g transform="translate(39.738283, 205.288141)"><g><path d="M 18.84375 -1.8125 C 18.289062 -1.539062 17.71875 -1.273438 17.125 -1.015625 C 16.539062 -0.765625 15.910156 -0.539062 15.234375 -0.34375 C 14.566406 -0.15625 13.835938 -0.0078125 13.046875 0.09375 C 12.253906 0.207031 11.394531 0.265625 10.46875 0.265625 C 7.476562 0.265625 5.175781 -0.398438 3.5625 -1.734375 C 1.945312 -3.078125 1.140625 -5.304688 1.140625 -8.421875 C 1.140625 -10.222656 1.414062 -11.921875 1.96875 -13.515625 C 2.53125 -15.109375 3.351562 -16.5 4.4375 -17.6875 C 5.53125 -18.882812 6.878906 -19.828125 8.484375 -20.515625 C 10.085938 -21.210938 11.925781 -21.5625 14 -21.5625 C 14.976562 -21.5625 15.875 -21.492188 16.6875 -21.359375 C 17.507812 -21.222656 18.25 -21.046875 18.90625 -20.828125 C 19.5625 -20.617188 20.148438 -20.390625 20.671875 -20.140625 C 21.191406 -19.898438 21.664062 -19.671875 22.09375 -19.453125 L 20.890625 -13.234375 L 14.875 -13.234375 C 14.894531 -13.453125 14.921875 -13.738281 14.953125 -14.09375 C 14.984375 -14.457031 15.007812 -14.820312 15.03125 -15.1875 C 15.0625 -15.550781 15.085938 -15.910156 15.109375 -16.265625 C 15.128906 -16.628906 15.140625 -16.929688 15.140625 -17.171875 C 15.140625 -17.359375 15.128906 -17.566406 15.109375 -17.796875 C 15.085938 -18.023438 15.03125 -18.25 14.9375 -18.46875 C 14.851562 -18.695312 14.710938 -18.882812 14.515625 -19.03125 C 14.328125 -19.175781 14.078125 -19.25 13.765625 -19.25 C 13.191406 -19.25 12.664062 -19.007812 12.1875 -18.53125 C 11.707031 -18.050781 11.273438 -17.414062 10.890625 -16.625 C 10.515625 -15.832031 10.179688 -14.9375 9.890625 -13.9375 C 9.597656 -12.9375 9.359375 -11.914062 9.171875 -10.875 C 8.984375 -9.84375 8.835938 -8.820312 8.734375 -7.8125 C 8.640625 -6.8125 8.59375 -5.9375 8.59375 -5.1875 C 8.59375 -4.957031 8.601562 -4.675781 8.625 -4.34375 C 8.644531 -4.007812 8.707031 -3.6875 8.8125 -3.375 C 8.925781 -3.0625 9.097656 -2.789062 9.328125 -2.5625 C 9.566406 -2.34375 9.890625 -2.234375 10.296875 -2.234375 C 10.984375 -2.234375 11.648438 -2.660156 12.296875 -3.515625 C 12.941406 -4.378906 13.507812 -5.914062 14 -8.125 L 20.1875 -8.125 Z M 18.84375 -1.8125 "/></g></g></g><g fill="#000000" fill-opacity="1"><g transform="translate(61.094902, 205.288141)"><g><path d="M 13.734375 -21.5625 C 15.648438 -21.5625 17.203125 -21.316406 18.390625 -20.828125 C 19.585938 -20.335938 20.53125 -19.578125 21.21875 -18.546875 C 21.664062 -17.859375 22.007812 -17.078125 22.25 -16.203125 C 22.5 -15.335938 22.625 -14.335938 22.625 -13.203125 C 22.625 -12.222656 22.535156 -11.242188 22.359375 -10.265625 C 22.179688 -9.285156 21.929688 -8.34375 21.609375 -7.4375 C 21.285156 -6.53125 20.894531 -5.679688 20.4375 -4.890625 C 19.976562 -4.097656 19.472656 -3.40625 18.921875 -2.8125 C 17.867188 -1.675781 16.65625 -0.878906 15.28125 -0.421875 C 13.914062 0.0351562 12.234375 0.265625 10.234375 0.265625 C 8.285156 0.265625 6.722656 0.0664062 5.546875 -0.328125 C 4.367188 -0.734375 3.429688 -1.378906 2.734375 -2.265625 C 2.242188 -2.890625 1.859375 -3.679688 1.578125 -4.640625 C 1.304688 -5.597656 1.171875 -6.800781 1.171875 -8.25 C 1.171875 -10.726562 1.609375 -12.941406 2.484375 -14.890625 C 3.367188 -16.835938 4.625 -18.378906 6.25 -19.515625 C 7.226562 -20.203125 8.316406 -20.710938 9.515625 -21.046875 C 10.722656 -21.390625 12.128906 -21.5625 13.734375 -21.5625 Z M 9.953125 -2.078125 C 10.472656 -2.078125 10.957031 -2.300781 11.40625 -2.75 C 11.863281 -3.207031 12.285156 -3.820312 12.671875 -4.59375 C 13.066406 -5.363281 13.425781 -6.238281 13.75 -7.21875 C 14.070312 -8.195312 14.34375 -9.207031 14.5625 -10.25 C 14.789062 -11.300781 14.96875 -12.34375 15.09375 -13.375 C 15.21875 -14.414062 15.28125 -15.359375 15.28125 -16.203125 C 15.28125 -17.367188 15.160156 -18.164062 14.921875 -18.59375 C 14.691406 -19.03125 14.351562 -19.25 13.90625 -19.25 C 13.394531 -19.25 12.90625 -19.023438 12.4375 -18.578125 C 11.96875 -18.140625 11.523438 -17.546875 11.109375 -16.796875 C 10.703125 -16.046875 10.335938 -15.1875 10.015625 -14.21875 C 9.691406 -13.25 9.410156 -12.25 9.171875 -11.21875 C 8.941406 -10.195312 8.765625 -9.1875 8.640625 -8.1875 C 8.515625 -7.1875 8.453125 -6.265625 8.453125 -5.421875 C 8.453125 -4.148438 8.59375 -3.273438 8.875 -2.796875 C 9.15625 -2.316406 9.515625 -2.078125 9.953125 -2.078125 Z M 9.953125 -2.078125 "/></g></g></g><g fill="#000000" fill-opacity="1"><g transform="translate(83.988921, 205.288141)"><g><path d="M 20.828125 -16.171875 C 20.828125 -14.859375 20.457031 -13.644531 19.71875 -12.53125 C 18.976562 -11.414062 17.765625 -10.570312 16.078125 -10 L 19.953125 0 L 12.5 0 L 9.5625 -9.265625 L 9.1875 -9.265625 L 7.21875 0 L 0 0 L 4.515625 -21.21875 L 13.296875 -21.21875 C 14.328125 -21.21875 15.296875 -21.15625 16.203125 -21.03125 C 17.117188 -20.914062 17.914062 -20.671875 18.59375 -20.296875 C 19.28125 -19.929688 19.820312 -19.421875 20.21875 -18.765625 C 20.625 -18.109375 20.828125 -17.242188 20.828125 -16.171875 Z M 11.203125 -11.390625 C 11.773438 -11.390625 12.265625 -11.582031 12.671875 -11.96875 C 13.085938 -12.363281 13.425781 -12.835938 13.6875 -13.390625 C 13.945312 -13.953125 14.128906 -14.550781 14.234375 -15.1875 C 14.347656 -15.820312 14.40625 -16.375 14.40625 -16.84375 C 14.40625 -17.425781 14.300781 -17.921875 14.09375 -18.328125 C 13.894531 -18.742188 13.460938 -18.953125 12.796875 -18.953125 L 11.296875 -18.953125 L 9.625 -11.390625 Z M 11.203125 -11.390625 "/></g></g></g><g fill="#000000" fill-opacity="1"><g transform="translate(105.145006, 205.288141)"><g><path d="M 20.828125 -16.171875 C 20.828125 -14.859375 20.457031 -13.644531 19.71875 -12.53125 C 18.976562 -11.414062 17.765625 -10.570312 16.078125 -10 L 19.953125 0 L 12.5 0 L 9.5625 -9.265625 L 9.1875 -9.265625 L 7.21875 0 L 0 0 L 4.515625 -21.21875 L 13.296875 -21.21875 C 14.328125 -21.21875 15.296875 -21.15625 16.203125 -21.03125 C 17.117188 -20.914062 17.914062 -20.671875 18.59375 -20.296875 C 19.28125 -19.929688 19.820312 -19.421875 20.21875 -18.765625 C 20.625 -18.109375 20.828125 -17.242188 20.828125 -16.171875 Z M 11.203125 -11.390625 C 11.773438 -11.390625 12.265625 -11.582031 12.671875 -11.96875 C 13.085938 -12.363281 13.425781 -12.835938 13.6875 -13.390625 C 13.945312 -13.953125 14.128906 -14.550781 14.234375 -15.1875 C 14.347656 -15.820312 14.40625 -16.375 14.40625 -16.84375 C 14.40625 -17.425781 14.300781 -17.921875 14.09375 -18.328125 C 13.894531 -18.742188 13.460938 -18.953125 12.796875 -18.953125 L 11.296875 -18.953125 L 9.625 -11.390625 Z M 11.203125 -11.390625 "/></g></g></g><g fill="#000000" fill-opacity="1"><g transform="translate(126.30109, 205.288141)"><g><path d="M 8.921875 -7.59375 C 8.804688 -7.09375 8.71875 -6.664062 8.65625 -6.3125 C 8.59375 -5.957031 8.5625 -5.625 8.5625 -5.3125 C 8.5625 -4.53125 8.832031 -3.90625 9.375 -3.4375 C 9.914062 -2.96875 10.722656 -2.734375 11.796875 -2.734375 C 12.578125 -2.734375 13.21875 -2.867188 13.71875 -3.140625 C 14.21875 -3.410156 14.628906 -3.765625 14.953125 -4.203125 C 15.273438 -4.648438 15.53125 -5.164062 15.71875 -5.75 C 15.914062 -6.332031 16.078125 -6.945312 16.203125 -7.59375 L 19.046875 -21.21875 L 22.09375 -21.21875 L 19.1875 -7.515625 C 18.957031 -6.453125 18.628906 -5.453125 18.203125 -4.515625 C 17.785156 -3.578125 17.179688 -2.75 16.390625 -2.03125 C 15.597656 -1.320312 14.578125 -0.757812 13.328125 -0.34375 C 12.085938 0.0625 10.539062 0.265625 8.6875 0.265625 C 6.125 0.265625 4.226562 -0.148438 3 -0.984375 C 1.78125 -1.816406 1.171875 -3.101562 1.171875 -4.84375 C 1.171875 -5.625 1.269531 -6.613281 1.46875 -7.8125 C 1.664062 -9.019531 1.921875 -10.328125 2.234375 -11.734375 L 4.28125 -21.21875 L 11.859375 -21.21875 Z M 8.921875 -7.59375 "/></g></g></g><g fill="#000000" fill-opacity="1"><g transform="translate(147.356902, 205.288141)"><g><path d="M 20.484375 -16.375 C 20.484375 -15.726562 20.390625 -15.148438 20.203125 -14.640625 C 20.015625 -14.128906 19.753906 -13.671875 19.421875 -13.265625 C 19.085938 -12.867188 18.695312 -12.515625 18.25 -12.203125 C 17.800781 -11.890625 17.3125 -11.597656 16.78125 -11.328125 C 17.019531 -11.242188 17.304688 -11.101562 17.640625 -10.90625 C 17.972656 -10.71875 18.296875 -10.457031 18.609375 -10.125 C 18.921875 -9.789062 19.179688 -9.363281 19.390625 -8.84375 C 19.609375 -8.320312 19.71875 -7.679688 19.71875 -6.921875 C 19.71875 -5.921875 19.503906 -4.992188 19.078125 -4.140625 C 18.660156 -3.296875 18.03125 -2.566406 17.1875 -1.953125 C 16.351562 -1.335938 15.328125 -0.859375 14.109375 -0.515625 C 12.898438 -0.171875 11.503906 0 9.921875 0 L 0 0 L 4.515625 -21.21875 L 13.296875 -21.21875 C 14.171875 -21.21875 15.035156 -21.15625 15.890625 -21.03125 C 16.742188 -20.914062 17.507812 -20.675781 18.1875 -20.3125 C 18.875 -19.957031 19.425781 -19.460938 19.84375 -18.828125 C 20.269531 -18.191406 20.484375 -17.375 20.484375 -16.375 Z M 11.390625 -12.328125 C 11.878906 -12.328125 12.296875 -12.472656 12.640625 -12.765625 C 12.992188 -13.054688 13.28125 -13.414062 13.5 -13.84375 C 13.726562 -14.28125 13.894531 -14.75 14 -15.25 C 14.113281 -15.757812 14.171875 -16.210938 14.171875 -16.609375 C 14.171875 -17.253906 14.019531 -17.804688 13.71875 -18.265625 C 13.414062 -18.722656 12.941406 -18.953125 12.296875 -18.953125 L 11.296875 -18.953125 L 9.859375 -12.328125 Z M 8.984375 -2.109375 C 9.660156 -2.109375 10.21875 -2.296875 10.65625 -2.671875 C 11.101562 -3.046875 11.472656 -3.507812 11.765625 -4.0625 C 12.054688 -4.625 12.257812 -5.210938 12.375 -5.828125 C 12.5 -6.441406 12.5625 -6.984375 12.5625 -7.453125 C 12.5625 -8.234375 12.398438 -8.851562 12.078125 -9.3125 C 11.753906 -9.769531 11.238281 -10 10.53125 -10 L 9.296875 -10 L 7.65625 -2.109375 Z M 8.984375 -2.109375 "/></g></g></g><g fill="#000000" fill-opacity="1"><g transform="translate(168.145345, 205.288141)"><g><path d="M 20.484375 -16.375 C 20.484375 -15.726562 20.390625 -15.148438 20.203125 -14.640625 C 20.015625 -14.128906 19.753906 -13.671875 19.421875 -13.265625 C 19.085938 -12.867188 18.695312 -12.515625 18.25 -12.203125 C 17.800781 -11.890625 17.3125 -11.597656 16.78125 -11.328125 C 17.019531 -11.242188 17.304688 -11.101562 17.640625 -10.90625 C 17.972656 -10.71875 18.296875 -10.457031 18.609375 -10.125 C 18.921875 -9.789062 19.179688 -9.363281 19.390625 -8.84375 C 19.609375 -8.320312 19.71875 -7.679688 19.71875 -6.921875 C 19.71875 -5.921875 19.503906 -4.992188 19.078125 -4.140625 C 18.660156 -3.296875 18.03125 -2.566406 17.1875 -1.953125 C 16.351562 -1.335938 15.328125 -0.859375 14.109375 -0.515625 C 12.898438 -0.171875 11.503906 0 9.921875 0 L 0 0 L 4.515625 -21.21875 L 13.296875 -21.21875 C 14.171875 -21.21875 15.035156 -21.15625 15.890625 -21.03125 C 16.742188 -20.914062 17.507812 -20.675781 18.1875 -20.3125 C 18.875 -19.957031 19.425781 -19.460938 19.84375 -18.828125 C 20.269531 -18.191406 20.484375 -17.375 20.484375 -16.375 Z M 11.390625 -12.328125 C 11.878906 -12.328125 12.296875 -12.472656 12.640625 -12.765625 C 12.992188 -13.054688 13.28125 -13.414062 13.5 -13.84375 C 13.726562 -14.28125 13.894531 -14.75 14 -15.25 C 14.113281 -15.757812 14.171875 -16.210938 14.171875 -16.609375 C 14.171875 -17.253906 14.019531 -17.804688 13.71875 -18.265625 C 13.414062 -18.722656 12.941406 -18.953125 12.296875 -18.953125 L 11.296875 -18.953125 L 9.859375 -12.328125 Z M 8.984375 -2.109375 C 9.660156 -2.109375 10.21875 -2.296875 10.65625 -2.671875 C 11.101562 -3.046875 11.472656 -3.507812 11.765625 -4.0625 C 12.054688 -4.625 12.257812 -5.210938 12.375 -5.828125 C 12.5 -6.441406 12.5625 -6.984375 12.5625 -7.453125 C 12.5625 -8.234375 12.398438 -8.851562 12.078125 -9.3125 C 11.753906 -9.769531 11.238281 -10 10.53125 -10 L 9.296875 -10 L 7.65625 -2.109375 Z M 8.984375 -2.109375 "/></g></g></g><g fill="#000000" fill-opacity="1"><g transform="translate(188.933788, 205.288141)"><g><path d="M 7.21875 0 L 0 0 L 4.515625 -21.21875 L 11.765625 -21.21875 Z M 7.21875 0 "/></g></g></g><g fill="#000000" fill-opacity="1"><g transform="translate(199.829341, 205.288141)"><g><path d="M 13.734375 -21.5625 C 15.648438 -21.5625 17.203125 -21.316406 18.390625 -20.828125 C 19.585938 -20.335938 20.53125 -19.578125 21.21875 -18.546875 C 21.664062 -17.859375 22.007812 -17.078125 22.25 -16.203125 C 22.5 -15.335938 22.625 -14.335938 22.625 -13.203125 C 22.625 -12.222656 22.535156 -11.242188 22.359375 -10.265625 C 22.179688 -9.285156 21.929688 -8.34375 21.609375 -7.4375 C 21.285156 -6.53125 20.894531 -5.679688 20.4375 -4.890625 C 19.976562 -4.097656 19.472656 -3.40625 18.921875 -2.8125 C 17.867188 -1.675781 16.65625 -0.878906 15.28125 -0.421875 C 13.914062 0.0351562 12.234375 0.265625 10.234375 0.265625 C 8.285156 0.265625 6.722656 0.0664062 5.546875 -0.328125 C 4.367188 -0.734375 3.429688 -1.378906 2.734375 -2.265625 C 2.242188 -2.890625 1.859375 -3.679688 1.578125 -4.640625 C 1.304688 -5.597656 1.171875 -6.800781 1.171875 -8.25 C 1.171875 -10.726562 1.609375 -12.941406 2.484375 -14.890625 C 3.367188 -16.835938 4.625 -18.378906 6.25 -19.515625 C 7.226562 -20.203125 8.316406 -20.710938 9.515625 -21.046875 C 10.722656 -21.390625 12.128906 -21.5625 13.734375 -21.5625 Z M 9.953125 -2.078125 C 10.472656 -2.078125 10.957031 -2.300781 11.40625 -2.75 C 11.863281 -3.207031 12.285156 -3.820312 12.671875 -4.59375 C 13.066406 -5.363281 13.425781 -6.238281 13.75 -7.21875 C 14.070312 -8.195312 14.34375 -9.207031 14.5625 -10.25 C 14.789062 -11.300781 14.96875 -12.34375 15.09375 -13.375 C 15.21875 -14.414062 15.28125 -15.359375 15.28125 -16.203125 C 15.28125 -17.367188 15.160156 -18.164062 14.921875 -18.59375 C 14.691406 -19.03125 14.351562 -19.25 13.90625 -19.25 C 13.394531 -19.25 12.90625 -19.023438 12.4375 -18.578125 C 11.96875 -18.140625 11.523438 -17.546875 11.109375 -16.796875 C 10.703125 -16.046875 10.335938 -15.1875 10.015625 -14.21875 C 9.691406 -13.25 9.410156 -12.25 9.171875 -11.21875 C 8.941406 -10.195312 8.765625 -9.1875 8.640625 -8.1875 C 8.515625 -7.1875 8.453125 -6.265625 8.453125 -5.421875 C 8.453125 -4.148438 8.59375 -3.273438 8.875 -2.796875 C 9.15625 -2.316406 9.515625 -2.078125 9.953125 -2.078125 Z M 9.953125 -2.078125 "/></g></g></g></svg>