<?xml version="1.0" standalone="no"?>
<!DOCTYPE svg PUBLIC "-//W3C//DTD SVG 20010904//EN"
 "http://www.w3.org/TR/2001/REC-SVG-20010904/DTD/svg10.dtd">
<svg version="1.0" xmlns="http://www.w3.org/2000/svg"
 width="512.000000pt" height="512.000000pt" viewBox="0 0 512.000000 512.000000"
 preserveAspectRatio="xMidYMid meet">
<metadata>
Created by potrace 1.16, written by Peter Selinger 2001-2019
</metadata>
<g transform="translate(0.000000,512.000000) scale(0.100000,-0.100000)"
fill="#000000" stroke="none">
<path d="M4273 4633 c-103 -112 -573 -609 -705 -746 -85 -88 -130 -127 -145
-127 -12 0 -41 18 -64 40 -23 22 -47 40 -53 41 -28 3 -36 -3 -36 -25 0 -32
105 -147 126 -139 12 4 7 13 -20 35 -20 16 -41 39 -47 50 -9 17 -8 18 9 9 26
-14 84 -80 78 -90 -3 -4 18 -25 47 -47 62 -47 220 -200 192 -185 -11 5 -55 40
-98 76 -82 69 -105 78 -67 27 l23 -30 -21 -29 c-26 -36 -71 -78 -77 -72 -2 3
16 28 41 57 25 29 41 52 36 52 -6 0 -29 20 -53 45 -24 25 -51 48 -62 51 -10 3
-16 12 -13 20 6 15 -69 64 -100 64 -14 1 -32 29 -74 118 -73 155 -116 238
-152 290 -16 23 -25 42 -21 42 4 0 0 5 -10 11 -9 6 -14 15 -11 21 4 7 2 8 -4
4 -11 -7 -17 7 -12 29 1 6 -2 7 -6 2 -4 -4 -16 0 -26 10 -20 18 -25 38 -6 27
7 -5 8 -3 4 5 -5 7 -10 10 -13 7 -3 -3 -32 19 -65 48 -33 29 -85 68 -116 87
-50 30 -64 34 -124 33 -62 0 -66 1 -57 18 5 10 21 21 35 24 59 15 119 -12 239
-107 22 -17 7 1 -33 41 -70 68 -154 120 -195 120 -31 0 -95 -38 -122 -74 -31
-41 -69 -131 -91 -221 -14 -55 -21 -69 -43 -77 -269 -106 -424 -258 -497 -488
-9 -30 -25 -64 -35 -75 -23 -26 -36 -61 -59 -160 -28 -123 -34 -191 -20 -225
11 -26 10 -33 -3 -48 -29 -32 -47 -90 -47 -151 l0 -59 -36 -7 c-50 -9 -131
-86 -140 -131 -4 -24 -1 -42 11 -60 19 -30 99 -83 136 -91 25 -5 27 -9 31 -74
6 -79 31 -120 104 -172 46 -33 55 -47 27 -47 -9 0 -40 22 -69 50 -47 44 -58
50 -96 50 -90 -1 -354 -71 -463 -125 -159 -77 -331 -301 -382 -497 l-17 -66
61 -122 62 -123 -44 -77 c-25 -42 -45 -84 -45 -93 0 -20 113 -107 139 -107 6
0 23 24 37 53 15 28 35 64 45 79 19 26 20 26 58 11 l39 -15 -30 -65 c-27 -60
-91 -268 -99 -321 -4 -22 8 -28 152 -81 86 -32 178 -71 204 -86 42 -25 47 -26
42 -9 -4 10 -20 67 -37 126 l-31 107 40 118 c22 65 54 177 71 248 38 162 69
257 81 249 5 -3 21 -29 36 -57 41 -83 162 -263 252 -377 82 -103 525 -554 608
-618 l42 -33 123 114 c150 139 379 385 563 607 76 91 143 171 150 178 9 10 15
-3 29 -65 10 -43 21 -94 26 -113 10 -39 10 -42 -5 117 -6 61 -5 63 31 102 l36
41 -27 0 c-23 0 -26 2 -15 15 20 24 39 17 44 -18 3 -17 13 -75 21 -127 21
-130 37 -175 112 -322 l65 -127 -35 -106 c-35 -103 -35 -106 -14 -99 12 3 49
23 82 44 33 21 88 50 121 64 145 60 304 158 373 230 48 49 32 45 -34 -9 -94
-76 -88 -77 -129 25 -20 50 -36 92 -36 95 0 3 8 5 19 5 33 0 100 28 156 65
106 71 239 223 219 251 -5 7 -33 47 -61 89 l-53 77 24 31 c44 59 77 136 67
155 -15 27 -200 204 -266 254 -33 25 -93 67 -133 93 l-73 49 8 40 c24 124 -8
237 -83 288 -40 28 -265 108 -303 108 -23 0 -26 11 -36 105 -5 58 -4 62 26 90
17 17 37 42 45 57 31 60 8 214 -45 299 -17 28 -31 55 -31 60 0 22 84 109 104
109 23 -1 91 -48 113 -80 9 -12 25 -20 44 -20 24 0 29 4 29 24 0 14 -10 33
-24 44 -49 38 -138 151 -130 164 24 39 632 753 743 872 76 82 101 125 101 174
0 37 -17 52 -59 52 -31 0 -44 -9 -98 -67z m122 8 c0 -13 -8 -29 -18 -35 -15
-9 -22 -7 -38 13 -24 29 -9 54 30 49 20 -2 26 -9 26 -27z m-62 -51 c16 -13 24
-27 20 -36 -4 -12 -8 -10 -17 8 -7 14 -22 24 -39 26 -15 2 -25 8 -22 13 10 15
30 11 58 -11z m-30 -26 c13 -13 -6 -34 -25 -28 -15 4 -18 3 -13 -6 5 -9 4 -11
-3 -6 -7 4 -12 2 -12 -5 0 -15 -72 -97 -261 -298 -216 -230 -250 -265 -292
-296 -27 -20 -34 -30 -25 -36 7 -4 9 -11 6 -15 -10 -9 -40 4 -36 15 3 10 513
554 572 610 19 19 32 39 29 44 -3 6 -1 7 4 4 6 -4 16 0 23 8 13 16 23 19 33 9z
m27 -48 c0 -2 -8 -10 -17 -17 -16 -13 -17 -12 -4 4 13 16 21 21 21 13z m-60
-20 c0 -2 -8 -10 -17 -17 -16 -13 -17 -12 -4 4 13 16 21 21 21 13z m-41 -53
c-8 -10 -55 -65 -105 -123 -49 -58 -155 -184 -236 -280 -137 -164 -259 -296
-158 -170 70 87 257 306 345 405 44 50 97 111 119 138 21 26 41 47 44 47 3 0
-1 -8 -9 -17z m-1492 -49 c96 -47 261 -232 338 -379 20 -38 28 -59 18 -45
-160 218 -238 292 -318 301 -26 4 -30 1 -28 -19 5 -39 31 -92 50 -98 56 -18
164 -79 203 -114 l45 -41 -51 36 c-65 44 -121 69 -206 90 -59 15 -68 21 -77
48 -6 16 -11 39 -11 49 0 12 -4 16 -11 12 -18 -11 -3 -86 20 -105 18 -15 19
-18 4 -39 -26 -36 -81 -202 -97 -291 -16 -84 -36 -325 -36 -428 0 -46 2 -53
18 -48 277 80 476 159 588 233 76 50 84 48 84 -27 0 -42 -3 -48 -37 -72 -21
-14 -65 -39 -98 -56 -80 -40 -64 -39 39 4 47 19 87 35 90 35 3 0 6 -11 6 -25
0 -21 -8 -27 -62 -43 -35 -11 -133 -32 -218 -46 -85 -15 -186 -35 -225 -46
l-70 -20 102 5 c85 4 272 31 423 61 l35 7 -25 -20 c-33 -27 -119 -70 -197 -99
-35 -13 -157 -42 -271 -65 -114 -23 -214 -45 -222 -50 -10 -6 -5 -7 15 -4 17
3 84 12 150 21 237 32 453 103 543 179 l30 25 -31 -76 c-23 -54 -33 -70 -38
-57 -17 48 -23 -55 -20 -349 1 -189 -2 -319 -7 -322 -6 -3 -16 2 -23 11 -11
12 -15 70 -19 233 l-5 217 -28 42 c-59 88 -96 95 -361 60 -194 -25 -405 -22
-615 10 -155 24 -167 21 -216 -46 -16 -23 -33 -42 -37 -42 -5 -1 -8 14 -8 32
0 29 -16 116 -35 190 l-7 28 63 -35 c73 -39 200 -81 274 -90 37 -5 20 3 -70
32 -140 44 -214 82 -258 131 l-31 36 28 3 c15 2 84 -10 154 -27 136 -32 220
-47 212 -38 -3 4 -80 32 -170 62 -210 72 -214 74 -205 128 4 23 11 46 15 50 4
5 34 -5 66 -21 63 -31 142 -60 324 -117 63 -20 120 -38 126 -41 7 -3 13 62 17
213 7 231 27 466 53 623 18 108 59 246 76 256 8 5 9 1 4 -12 -26 -67 -58 -199
-61 -254 -2 -36 -2 -56 1 -45 19 67 22 -14 17 -472 -4 -345 -3 -512 4 -516 14
-9 21 128 28 508 9 462 25 670 56 748 25 61 89 69 186 21z m-372 -390 c-8 -60
-19 -188 -25 -284 -13 -204 -16 -220 -34 -220 -8 0 -53 16 -100 36 -113 47
-129 68 -124 155 5 88 46 170 144 283 77 89 77 89 29 55 -142 -101 -235 -266
-235 -416 0 -31 -2 -34 -22 -28 -13 4 -36 15 -53 24 -40 23 -37 53 14 157 69
138 211 270 356 329 33 13 61 23 62 21 1 -1 -4 -51 -12 -112z m479 75 c37 -13
68 -34 92 -62 20 -23 34 -35 30 -27 -5 8 14 -7 41 -35 26 -27 51 -49 55 -48
22 7 124 -174 134 -239 5 -29 1 -36 -30 -56 -89 -60 -307 -119 -459 -124 l-72
-3 2 98 c4 168 38 343 90 460 29 65 35 67 117 36z m804 -227 c2 -7 -6 -12 -17
-12 -21 0 -27 11 -14 24 9 9 26 2 31 -12z m-38 -44 c-11 -4 -20 -12 -20 -18 0
-5 -7 -10 -16 -10 -10 0 -14 -6 -10 -15 6 -16 -3 -19 -29 -9 -14 6 -10 13 21
45 31 32 39 36 55 26 18 -11 18 -12 -1 -19z m-300 2 c0 -5 -4 -10 -10 -10 -5
0 -10 5 -10 10 0 6 5 10 10 10 6 0 10 -4 10 -10z m322 -67 c-33 -38 -71 -81
-85 -97 l-24 -30 -31 23 c-30 21 -80 81 -67 81 3 0 25 -18 49 -41 l44 -40 83
85 c45 47 84 86 86 86 2 0 -23 -30 -55 -67z m-88 -24 c-2 -5 -16 -3 -29 3 -13
6 -22 15 -19 19 2 5 16 3 29 -3 13 -6 22 -15 19 -19z m-30 -15 c9 -24 7 -28
-9 -14 -17 14 -20 30 -6 30 5 0 12 -7 15 -16z m-208 -50 c18 -14 18 -15 -6 -8
-31 8 -50 24 -29 24 8 0 24 -7 35 -16z m-135 -68 c-32 -39 -373 -178 -513
-210 -27 -6 -28 -5 -28 34 0 35 3 40 23 40 94 0 452 97 504 136 23 17 28 18
14 0z m221 -2 c35 -18 34 -25 -4 -137 -25 -71 -37 -75 -52 -15 -5 22 -2 27 16
30 13 2 29 18 41 42 l21 39 -34 29 c-38 31 -34 36 12 12z m-1427 -30 c40 -14
136 -38 212 -53 l138 -27 3 -42 c2 -30 -1 -42 -10 -42 -29 0 -265 73 -327 101
-71 32 -101 55 -101 76 0 17 0 17 85 -13z m1756 -147 c-1 -12 -15 -9 -19 4 -3
6 1 10 8 8 6 -3 11 -8 11 -12z m-289 -107 c33 -25 56 -83 68 -171 12 -85 -3
-128 -59 -164 -34 -23 -132 -38 -146 -23 -4 3 -12 43 -19 88 -12 69 -11 92 0
142 31 132 90 180 156 128z m-1608 -187 c12 -40 46 -223 46 -246 0 -59 -26
-28 -78 93 -8 19 -11 21 -11 7 -1 -10 -5 -15 -11 -12 -5 3 -10 32 -10 64 0 44
5 65 21 85 24 30 36 33 43 9z m1426 -102 c-1 -36 -7 -79 -15 -96 -12 -28 -13
-21 -14 85 0 103 1 113 14 96 10 -13 15 -43 15 -85z m-385 19 c18 -20 18 -21
-1 -35 -10 -8 -88 -50 -171 -93 -151 -78 -153 -79 -153 -53 0 14 -3 36 -6 48
-7 24 -19 17 186 104 63 27 118 49 121 49 3 0 14 -9 24 -20z m-555 -45 l110
-55 0 -57 0 -56 -22 20 c-13 12 -77 56 -142 98 -111 71 -118 78 -101 91 10 8
25 14 32 14 7 0 63 -25 123 -55z m-202 -76 c28 -62 35 -70 98 -107 38 -22 106
-58 152 -81 l82 -41 1 -303 c0 -281 8 -383 22 -317 3 14 8 126 11 250 4 124 9
248 12 275 l6 50 150 74 c210 104 256 136 314 217 26 37 50 62 52 55 6 -17
-120 -282 -171 -359 -40 -60 -247 -324 -283 -362 -12 -12 -14 11 -14 171 l0
185 141 69 c139 68 226 121 216 131 -3 3 -23 -6 -46 -20 -52 -33 -255 -130
-305 -146 l-39 -13 7 -135 c3 -74 6 -214 6 -311 1 -140 3 -173 13 -161 7 8 82
75 167 147 85 72 207 184 270 247 63 64 119 116 125 116 5 0 21 -9 35 -20 l25
-20 -130 -127 c-140 -137 -396 -352 -449 -377 -26 -12 -51 -14 -127 -7 -52 4
-103 12 -113 18 -31 17 -386 364 -386 376 1 7 10 23 20 36 l20 23 124 -119
c69 -66 153 -144 188 -174 l63 -54 -43 55 c-24 30 -90 108 -148 172 -57 65
-104 120 -104 123 0 3 7 5 15 5 8 0 15 7 15 16 0 13 -48 212 -67 279 -3 11 8
1 25 -21 25 -34 251 -217 259 -210 2 1 -4 40 -12 87 -8 46 -15 87 -15 91 0 4
25 -3 55 -17 85 -37 56 -13 -67 57 -61 35 -126 77 -143 93 -32 30 -67 108 -79
175 l-6 35 14 -30 c8 -16 28 -60 44 -96z m-272 -91 c14 -15 15 -22 4 -47 -12
-29 -13 -30 -40 -16 -29 15 -40 57 -40 149 l0 41 30 -54 c17 -30 38 -63 46
-73z m-170 37 c-8 -49 -13 -62 -22 -54 -7 6 -14 27 -16 47 l-4 37 -8 -40 c-6
-24 -5 -54 1 -77 12 -46 9 -48 -12 -8 -24 46 -20 106 10 135 13 14 32 25 42
25 17 0 18 -5 9 -65z m1359 -116 c-20 -90 -37 -172 -38 -182 -1 -10 -12 -28
-26 -40 -13 -12 -21 -17 -18 -11 3 6 15 53 27 105 25 117 83 315 87 302 2 -6
-12 -84 -32 -174z m309 161 c24 0 34 -4 32 -12 -3 -7 -7 -25 -10 -40 -7 -31
-74 -68 -124 -68 -27 0 -32 4 -32 23 0 12 9 33 20 47 11 14 20 30 20 36 0 20
22 33 41 24 10 -6 34 -10 53 -10z m-1777 -112 c-3 -22 -4 -21 -11 4 -5 16 -5
36 0 45 7 16 8 15 11 -4 3 -13 3 -33 0 -45z m371 -151 c-3 -155 -5 -170 -23
-183 -19 -14 -20 -13 -26 43 -15 128 -10 225 13 290 20 54 24 60 31 40 5 -12
7 -98 5 -190z m1482 78 l0 -105 -40 -44 c-38 -41 -93 -76 -119 -76 -8 0 -11
39 -9 132 l3 133 27 9 c15 5 31 7 35 3 3 -4 9 -45 11 -92 2 -47 8 -82 13 -79
5 3 9 45 9 94 0 79 2 91 20 100 19 10 20 8 21 -62 0 -40 4 -82 9 -93 6 -13 9
16 9 83 1 56 3 102 6 102 3 0 5 -47 5 -105z m-1614 -83 c1 -46 6 -78 13 -80 7
-2 11 21 11 73 0 48 4 74 10 70 14 -9 13 -205 -1 -205 -6 0 -24 14 -41 31 -30
29 -31 32 -24 97 3 37 6 78 6 92 0 19 3 21 12 12 8 -8 13 -43 14 -90z m1841
38 c153 -50 203 -103 210 -223 3 -40 0 -83 -5 -97 -9 -21 -11 -13 -12 45 -1
136 -51 194 -206 244 -55 17 -114 34 -131 37 -22 4 -33 12 -33 24 0 16 5 16
54 5 30 -7 85 -23 123 -35z m-83 -61 c123 -37 145 -49 165 -88 20 -39 38 -161
24 -161 -5 0 -64 25 -132 56 -68 30 -147 60 -176 66 l-52 11 38 38 c20 20 40
51 44 68 4 17 9 31 12 31 3 0 38 -10 77 -21z m-578 -121 c-20 -23 -69 -72
-109 -107 -63 -57 -58 -51 33 45 105 110 144 142 76 62z m-226 -88 c-11 -21
-54 -84 -95 -139 -75 -100 -105 -131 -92 -97 8 19 196 276 203 276 2 0 -5 -18
-16 -40z m548 29 c53 -6 101 -15 106 -20 17 -16 -14 -36 -64 -41 -40 -4 -60 0
-98 19 -26 13 -55 22 -64 19 -21 -5 -23 5 -6 22 15 15 8 14 126 1z m-1580 -19
c38 -23 40 -29 8 -23 -18 4 -30 -3 -49 -29 -61 -81 -96 -179 -127 -353 -16
-89 -24 -113 -54 -154 -104 -141 -360 -330 -448 -331 -34 0 -82 57 -130 155
-58 115 -61 133 -40 196 57 163 173 321 300 405 75 50 234 106 377 133 l44 8
-15 -29 c-40 -77 -86 -218 -109 -334 -14 -70 -34 -142 -45 -160 -11 -17 -52
-62 -91 -99 -39 -36 -68 -69 -65 -72 17 -17 176 129 196 181 5 15 17 70 26
124 16 94 62 249 90 304 19 38 73 98 88 98 6 0 26 -9 44 -20z m1708 -64 c-15
-37 -126 -228 -150 -260 -8 -10 -19 -16 -25 -15 -10 4 27 71 136 247 47 77 65
89 39 28z m128 18 c31 -14 56 -29 56 -33 0 -4 -10 -17 -22 -28 l-23 -21 -62
25 -62 26 15 29 c18 34 27 35 98 2z m-1676 -70 c-17 -38 -23 -73 -26 -156 -3
-87 -7 -108 -19 -108 -24 0 -14 212 11 260 17 32 47 63 54 56 1 -2 -8 -25 -20
-52z m-38 40 c0 -8 -71 -36 -77 -30 -3 3 5 9 18 14 13 5 31 12 39 15 8 3 16 6
18 6 1 1 2 -1 2 -5z m1805 -24 c4 -6 -11 -30 -32 -53 -45 -49 -107 -139 -147
-214 -18 -33 -33 -50 -42 -46 -10 4 -7 17 13 56 51 99 173 267 193 267 5 0 12
-5 15 -10z m-1821 -14 c-3 -8 -19 -19 -36 -25 -38 -13 -38 -13 -38 -1 0 6 15
17 33 25 41 18 48 18 41 1z m1929 0 c9 -7 17 -17 17 -22 0 -5 -34 -94 -76
-197 -65 -162 -77 -198 -81 -265 -7 -104 7 -150 60 -199 47 -44 143 -103 196
-121 19 -7 42 -19 50 -27 24 -21 64 2 195 115 l112 96 62 -67 63 -68 -66 -70
c-37 -38 -98 -91 -137 -118 -62 -43 -76 -48 -122 -47 -93 1 -254 93 -372 210
-52 53 -103 135 -105 171 -1 10 -5 5 -9 -12 -7 -29 -8 -29 -9 -4 0 14 1 28 4
31 3 3 8 48 11 99 5 87 9 102 69 240 35 81 69 166 75 190 19 74 21 79 33 79 7
0 20 -7 30 -14z m-2020 -33 c-10 -24 -18 -79 -21 -150 -2 -62 -8 -113 -12
-113 -14 0 -20 80 -10 148 10 76 16 96 38 130 21 33 23 27 5 -15z m1412 -59
c-27 -70 -193 -223 -410 -377 -37 -26 -65 -51 -62 -54 15 -15 201 99 377 231
140 105 141 105 59 20 -42 -43 -81 -92 -87 -109 -5 -16 -13 -37 -17 -47 -6
-14 -1 -16 32 -11 28 4 42 1 52 -11 11 -13 7 -26 -29 -83 -47 -74 -218 -319
-276 -395 -20 -27 -34 -48 -31 -48 10 0 173 193 273 324 55 72 105 130 110
128 5 -1 39 -13 77 -26 l67 -23 -47 -69 c-79 -117 -123 -175 -201 -269 -42
-49 -59 -74 -38 -55 49 45 207 234 276 328 29 40 55 71 57 68 3 -3 -27 -51
-67 -108 -112 -158 -101 -152 38 22 42 52 100 121 129 153 29 32 53 62 53 68
0 5 5 9 10 9 23 0 6 -43 -46 -116 -84 -117 -262 -341 -393 -494 -131 -152
-548 -580 -565 -580 -22 0 -514 494 -595 597 -155 198 -280 406 -315 522 -19
66 -19 61 -1 61 9 0 18 -8 22 -17 9 -27 106 -193 110 -189 2 2 -6 25 -17 51
-40 93 -13 68 81 -75 108 -164 192 -271 352 -447 105 -117 337 -340 363 -350
7 -3 26 10 43 29 l30 33 1 398 0 398 30 -22 c26 -20 34 -21 67 -11 36 11 223
125 223 137 0 3 -49 -20 -110 -50 -60 -30 -116 -55 -124 -55 -23 0 -76 68 -76
98 l0 28 -127 11 c-71 6 -131 9 -135 6 -5 -2 -8 -18 -8 -34 0 -37 -16 -69 -34
-69 -16 0 -128 115 -146 150 l-13 25 29 -26 c45 -39 58 -47 100 -65 l39 -16
-41 44 c-49 53 -147 218 -129 218 2 0 22 -27 45 -59 45 -68 76 -94 42 -38 -28
48 -10 40 73 -36 33 -29 70 -59 82 -65 13 -7 69 -12 137 -12 131 0 170 11 284
81 122 76 102 77 -73 4 l-40 -17 33 35 c18 19 81 60 140 92 150 80 234 138
284 194 36 41 44 45 46 28 2 -11 -4 -39 -13 -63z m347 45 c25 -13 36 -24 32
-34 -4 -8 -10 -15 -15 -15 -7 0 -91 36 -108 47 -2 1 -1 9 3 18 7 18 27 15 88
-16z m423 -24 c48 -30 111 -74 139 -97 70 -58 236 -218 226 -218 -27 0 -134
-100 -194 -182 -83 -111 -131 -164 -169 -185 -27 -14 -33 -12 -105 22 -155 73
-176 104 -170 239 4 76 11 109 45 196 60 158 116 280 129 280 6 0 50 -25 99
-55z m-2107 23 c-3 -7 -19 -18 -36 -25 -28 -11 -32 -11 -32 2 0 9 10 20 23 25
32 13 49 12 45 -2z m1258 -9 c-28 -41 -165 -127 -254 -160 -27 -10 -27 -10 -7
10 16 15 262 169 273 171 2 0 -4 -10 -12 -21z m387 -32 c43 -20 47 -24 35 -40
-13 -17 -16 -17 -63 3 -60 26 -57 23 -49 44 8 21 19 20 77 -7z m-1653 -11 c0
-13 -28 -26 -57 -26 -20 0 -15 28 5 33 34 9 52 7 52 -7z m1830 -1 c0 -12 -182
-331 -196 -345 -15 -14 -15 -13 -9 10 12 42 118 242 155 292 31 42 50 58 50
43z m-170 -67 c0 -5 -5 -18 -10 -28 -10 -19 -11 -19 -63 1 -28 11 -54 22 -56
25 -2 2 4 15 13 28 l16 25 50 -21 c27 -11 50 -25 50 -30z m-1660 17 c0 -14
-69 -39 -79 -29 -10 10 16 39 40 45 29 7 39 3 39 -16z m0 -45 c0 -11 -42 -30
-66 -30 -22 0 -17 20 9 30 30 12 57 12 57 0z m1578 -15 c42 -17 49 -28 33 -54
-7 -11 -17 -11 -62 4 -30 10 -57 20 -61 24 -11 10 22 53 36 48 6 -3 30 -13 54
-22z m-1578 -34 c0 -12 -11 -23 -31 -30 -55 -19 -70 11 -16 34 42 19 47 18 47
-4z m1523 -32 c54 -23 101 -48 104 -54 2 -7 -13 -48 -33 -91 -21 -44 -37 -84
-36 -91 5 -23 -72 -25 -134 -3 -117 43 -131 94 -58 208 25 40 49 72 52 72 4 0
51 -19 105 -41z m-1459 -16 c3 -10 8 -40 12 -66 5 -41 3 -51 -16 -72 -20 -21
-82 -53 -136 -69 -18 -6 -22 -1 -28 26 -3 17 -14 40 -23 50 -13 15 -14 23 -5
41 6 12 12 31 14 41 2 15 22 24 83 42 100 28 93 27 99 7z m142 -88 c18 -14 54
-60 80 -102 69 -112 151 -219 186 -245 42 -29 53 -20 110 88 26 49 56 95 66
102 25 16 65 2 87 -32 15 -22 15 -38 1 -187 -9 -89 -16 -237 -17 -328 -1 -91
-4 -204 -8 -251 -6 -64 -8 -24 -9 164 -1 137 -4 247 -6 245 -2 -2 -10 -111
-17 -241 l-13 -237 -25 19 c-42 30 -258 246 -365 365 -116 128 -212 254 -290
379 l-56 90 71 33 c39 18 74 33 78 33 3 0 31 -42 61 -93 80 -135 191 -278 308
-396 113 -114 152 -131 53 -24 -165 181 -305 365 -366 482 -17 33 -17 38 -1
82 9 25 16 50 15 55 -6 32 14 32 57 -1z m2199 -224 c-6 -4 -57 -44 -115 -88
-119 -91 -190 -137 -125 -82 22 18 63 54 90 79 102 93 139 120 149 110 6 -6 6
-13 1 -19z m-2854 -202 c-9 -53 -9 -54 -10 -12 0 23 2 49 5 58 12 30 14 8 5
-46z m-24 -71 c-1 -82 -3 -102 -8 -73 -14 71 -9 185 6 185 2 0 3 -51 2 -112z
m-309 15 c2 -1 -10 -27 -28 -58 -20 -35 -36 -53 -43 -48 -35 20 -67 48 -67 57
0 6 14 35 31 65 l31 53 36 -33 c20 -19 38 -35 40 -36z m2700 -86 c17 -53 22
-96 13 -101 -5 -3 -15 28 -23 69 -15 74 -8 94 10 32z"/>
<path d="M2578 4358 c-15 -27 -15 -343 1 -478 8 -69 9 -39 6 160 -1 135 0 266
4 293 4 26 6 47 5 47 -2 0 -9 -10 -16 -22z"/>
<path d="M2380 3133 c0 -5 9 -18 20 -28 11 -10 20 -14 20 -8 0 5 -9 18 -20 28
-11 10 -20 14 -20 8z"/>
<path d="M2885 3962 c18 -70 27 -225 17 -315 -9 -87 -3 -109 23 -87 26 22 16
278 -14 372 -25 78 -44 100 -26 30z"/>
<path d="M3060 3892 c0 -4 7 -17 15 -28 8 -12 26 -54 40 -95 18 -51 24 -62 20
-34 -10 59 -75 197 -75 157z"/>
<path d="M3454 3215 c4 -10 10 -54 13 -96 8 -101 -11 -115 -27 -20 -6 39 -17
75 -25 81 -10 9 -10 -1 0 -52 23 -113 25 -140 12 -135 -7 2 -18 30 -25 63 -17
77 -37 98 -27 29 4 -27 13 -65 21 -83 11 -28 16 -32 33 -23 39 21 61 62 61
110 -1 58 -15 120 -31 135 -9 8 -10 7 -5 -9z"/>
<path d="M3300 3107 c0 -2 16 -37 35 -76 24 -48 41 -71 53 -71 11 0 13 3 5 8
-6 4 -22 32 -35 62 -21 46 -58 96 -58 77z"/>
<path d="M1390 2304 c-114 -34 -198 -82 -287 -167 -103 -98 -213 -270 -188
-295 9 -10 43 34 85 109 53 97 170 210 260 253 84 40 122 48 99 19 -9 -11 -3
-9 15 5 34 26 61 29 52 6 -3 -9 -15 -68 -26 -131 -23 -131 -43 -176 -107 -244
-53 -57 -68 -59 -145 -24 -98 45 -198 51 -198 12 0 -10 17 -16 53 -20 29 -3
90 -20 136 -38 98 -38 110 -35 178 51 66 84 82 124 93 238 7 70 19 125 39 177
16 41 28 75 27 74 0 0 -39 -11 -86 -25z"/>
<path d="M958 1758 c-16 -5 -28 -16 -28 -25 0 -37 108 -159 132 -150 9 4 8 6
-4 6 -9 1 -35 27 -58 59 l-41 57 28 12 c43 19 77 15 148 -14 55 -23 68 -25 75
-13 10 15 -9 26 -109 61 -59 21 -101 23 -143 7z"/>
<path d="M1090 1600 c-9 -6 -10 -10 -3 -10 6 0 15 5 18 10 8 12 4 12 -15 0z"/>
<path d="M3900 1395 c25 -13 50 -24 55 -24 6 0 -10 11 -35 24 -25 13 -49 24
-55 24 -5 0 10 -11 35 -24z"/>
<path d="M2745 1500 c-33 -22 -55 -40 -50 -40 11 0 115 68 115 75 0 8 -2 7
-65 -35z"/>
<path d="M1796 1478 c27 -45 98 -148 119 -173 15 -16 -6 18 -46 78 -40 59 -74
107 -76 107 -2 0 -1 -6 3 -12z"/>
<path d="M2960 1214 c-25 -25 -141 -134 -257 -242 -117 -107 -213 -197 -213
-199 0 -25 311 260 474 435 60 64 57 69 -4 6z"/>
<path d="M2889 1233 c-13 -16 -12 -17 4 -4 9 7 17 15 17 17 0 8 -8 3 -21 -13z"/>
<path d="M2227 955 c12 -16 47 -55 79 -85 75 -71 49 -34 -36 50 -35 36 -55 52
-43 35z"/>
<path d="M3819 2104 c107 -77 239 -187 256 -213 4 -8 -21 -42 -66 -90 -41 -42
-92 -99 -114 -125 l-40 -49 -50 26 c-80 40 -99 67 -106 150 l-7 72 2 -77 c1
-70 4 -80 29 -106 16 -16 51 -42 79 -57 l51 -28 35 39 c19 21 78 86 130 143
l96 104 -71 66 c-66 61 -212 161 -258 177 -11 3 4 -11 34 -32z"/>
<path d="M4069 1753 l-24 -28 28 24 c15 14 27 26 27 28 0 8 -8 1 -31 -24z"/>
<path d="M3183 1965 c-59 -90 -58 -109 13 -142 30 -14 72 -27 93 -30 37 -5 37
-5 63 53 49 110 49 110 -23 143 -106 47 -99 48 -146 -24z m162 -13 c22 -12 33
-21 24 -22 -23 0 -141 55 -133 63 7 7 46 -8 109 -41z m-75 2 c24 -10 38 -20
32 -26 -5 -5 -23 -2 -44 6 -27 12 -38 12 -48 3 -10 -10 -10 -8 -1 11 14 26 11
26 61 6z m15 -48 c50 -23 54 -27 46 -48 -10 -27 -11 -27 -83 -4 l-57 19 15 29
c8 15 17 28 19 28 2 0 29 -11 60 -24z m65 4 c0 -5 -5 -10 -11 -10 -5 0 -7 5
-4 10 3 6 8 10 11 10 2 0 4 -4 4 -10z"/>
<path d="M1750 1972 c-33 -16 -35 -20 -32 -62 2 -25 6 -48 11 -53 4 -4 32 1
62 12 52 18 54 20 53 54 -2 71 -26 84 -94 49z m64 -8 c12 -31 5 -43 -31 -53
-20 -6 -40 -8 -45 -5 -18 11 -7 44 20 58 35 20 48 20 56 0z"/>
<path d="M2880 4336 c0 -2 8 -10 18 -17 15 -13 16 -12 3 4 -13 16 -21 21 -21
13z"/>
<path d="M1601 1533 c-16 -40 -39 -148 -47 -220 l-6 -61 71 -105 c39 -58 79
-111 88 -119 9 -7 -19 38 -61 100 l-78 113 12 87 c6 48 18 118 26 156 15 74
14 94 -5 49z"/>
<path d="M3088 1158 c-148 -159 -169 -186 -103 -131 69 58 250 263 232 263 -3
0 -61 -60 -129 -132z"/>
<path d="M1815 1203 c57 -76 134 -169 161 -193 36 -32 27 -19 -85 118 -90 109
-132 150 -76 75z"/>
<path d="M1739 1103 c123 -185 319 -380 488 -486 58 -37 66 -34 18 5 -137 112
-320 286 -411 391 -137 157 -145 165 -95 90z"/>
<path d="M3015 886 c-121 -123 -247 -247 -280 -276 -71 -62 -54 -56 30 11 91
72 496 489 473 489 -1 0 -102 -101 -223 -224z"/>
</g>
</svg>